<svg xmlns="http://www.w3.org/2000/svg" version="1.1" xmlns:xlink="http://www.w3.org/1999/xlink" xmlns:svgjs="http://svgjs.com/svgjs" width="512" height="512"><svg width="512" height="512" viewBox="0 0 512 512" fill="none" xmlns="http://www.w3.org/2000/svg">
<path d="M0 256C0 397.385 114.615 512 256 512C397.385 512 512 397.385 512 256C512 114.615 397.385 0 256 0C114.615 0 0 114.615 0 256Z" fill="#EBF0FA"></path>
<path d="M73 189.964H114.619C129.919 189.964 141.508 193.43 149.387 200.36C157.265 207.29 161.204 216.833 161.204 228.989C161.204 241.032 157.265 250.575 149.387 257.619C141.508 264.549 129.919 268.014 114.619 268.014H101.945V309.254H73V189.964ZM114.619 213.652H101.945V244.156H114.619C120.442 244.156 125.009 242.85 128.32 240.237C131.632 237.624 133.287 233.875 133.287 228.989C133.287 223.991 131.632 220.185 128.32 217.572C125.009 214.959 120.442 213.652 114.619 213.652Z" fill="#150029"></path>
<path d="M197.351 261.198V238.021H257.638C255.811 232.909 252.956 228.535 249.074 224.899C245.192 221.264 240.739 218.48 235.715 216.549C230.805 214.618 225.724 213.652 220.472 213.652C212.023 213.652 204.829 215.129 198.892 218.083C192.955 221.037 188.273 224.104 184.848 227.285V199.167C189.643 195.531 194.896 192.634 200.605 190.476C206.314 188.317 213.507 187.238 222.185 187.238C235.087 187.238 246.448 189.851 256.268 195.077C266.201 200.303 273.966 207.631 279.56 217.06C285.269 226.376 288.124 237.226 288.124 249.609C288.124 261.993 285.269 272.899 279.56 282.329C273.966 291.645 266.201 298.916 256.268 304.142C246.448 309.368 235.087 311.981 222.185 311.981C213.507 311.981 206.314 310.902 200.605 308.743C194.896 306.585 189.643 303.688 184.848 300.052V271.934C188.273 275.115 192.955 278.182 198.892 281.136C204.829 284.09 212.023 285.567 220.472 285.567C225.724 285.567 230.805 284.601 235.715 282.67C240.739 280.738 245.192 277.955 249.074 274.32C252.956 270.684 255.811 266.31 257.638 261.198H197.351Z" fill="#150029"></path>
<path d="M410.055 309.254H331.271V328H302.326V284.374H321.851L370.663 184L419.475 284.374H439V328H410.055V309.254ZM370.663 235.976L353.022 284.374H388.304L370.663 235.976Z" fill="#150029"></path>
</svg><style>@media (prefers-color-scheme: light) { :root { filter: none; } }
</style></svg>