<svg width="387" height="92" viewBox="0 0 387 92" fill="none" xmlns="http://www.w3.org/2000/svg">
<path d="M64.2369 1.28056e-05C62.947 -0.000140124 61.6907 -0.000289071 60.6268 0.0866354C59.4584 0.182094 58.0798 0.407328 56.6925 1.11418C54.7691 2.09422 53.2053 3.65802 52.2252 5.58145C51.5184 6.96873 51.2931 8.34737 51.1977 9.51573C51.1108 10.5796 51.1109 11.8359 51.1111 13.1259V37.9852C51.1109 39.2752 51.1108 40.5315 51.1977 41.5954C51.2931 42.7637 51.5184 44.1424 52.2252 45.5297C53.2053 47.4531 54.7691 49.0169 56.6925 49.9969C58.0798 50.7038 59.4584 50.929 60.6268 51.0245C61.6907 51.1114 62.947 51.1112 64.237 51.1111H78.874C80.164 51.1112 81.4203 51.1114 82.4842 51.0245C83.6526 50.929 85.0312 50.7038 86.4185 49.9969C88.3419 49.0169 89.9057 47.4531 90.8858 45.5297C91.5926 44.1424 91.8178 42.7637 91.9133 41.5954C92.0002 40.5315 92.0001 39.2752 91.9999 37.9852V13.1259C92.0001 11.8359 92.0002 10.5796 91.9133 9.51573C91.8178 8.34737 91.5926 6.96873 90.8858 5.58145C89.9057 3.65802 88.3419 2.09422 86.4185 1.11418C85.0312 0.407328 83.6526 0.182094 82.4842 0.0866354C81.4203 -0.000289061 80.1641 -0.000140132 78.8741 1.27973e-05L64.2369 1.28056e-05Z" fill="#4C6783" fill-opacity="0.4"/>
<path d="M13.1259 40.8889C11.8359 40.8887 10.5796 40.8886 9.51573 40.9755C8.34737 41.0709 6.96873 41.2962 5.58145 42.003C3.65802 42.9831 2.09422 44.5469 1.11418 46.4703C0.407328 47.8576 0.182094 49.2362 0.0866354 50.4046C-0.000289061 51.4685 -0.000140132 52.7247 1.27973e-05 54.0146L1.28056e-05 78.8741C-0.000140124 80.164 -0.000289071 81.4203 0.0866354 82.4842C0.182094 83.6526 0.407328 85.0312 1.11418 86.4185C2.09422 88.3419 3.65802 89.9057 5.58145 90.8858C6.96873 91.5926 8.34737 91.8178 9.51573 91.9133C10.5797 92.0002 11.836 92.0001 13.126 91.9999H27.7629C29.0529 92.0001 30.3092 92.0002 31.3732 91.9133C32.5415 91.8178 33.9202 91.5926 35.3074 90.8858C37.2309 89.9057 38.7947 88.3419 39.7747 86.4185C40.4816 85.0312 40.7068 83.6526 40.8023 82.4842C40.8892 81.4203 40.889 80.1641 40.8889 78.8743V54.0147C40.889 52.7248 40.8892 51.4684 40.8023 50.4046C40.7068 49.2362 40.4816 47.8576 39.7747 46.4703C38.7947 44.5469 37.2309 42.9831 35.3074 42.003C33.9202 41.2962 32.5415 41.0709 31.3732 40.9755C30.3093 40.8886 29.053 40.8887 27.7631 40.8889H13.1259Z" fill="#4C6783" fill-opacity="0.4"/>
<path d="M13.1259 1.28056e-05C11.8359 -0.000140124 10.5796 -0.000289071 9.51573 0.0866354C8.34737 0.182094 6.96873 0.407328 5.58145 1.11418C3.65802 2.09422 2.09422 3.65802 1.11418 5.58145C0.407328 6.96873 0.182094 8.34737 0.0866354 9.51573C-0.000289061 10.5796 -0.000140132 11.8359 1.27973e-05 13.1258L1.28056e-05 17.5408C-0.000140124 18.8307 -0.000289071 20.0871 0.0866354 21.151C0.182094 22.3193 0.407328 23.698 1.11418 25.0852C2.09422 27.0087 3.65802 28.5725 5.58145 29.5525C6.96873 30.2594 8.34737 30.4846 9.51573 30.58C10.5796 30.667 11.8359 30.6668 13.1259 30.6667H27.763C29.053 30.6668 30.3092 30.667 31.3732 30.58C32.5415 30.4846 33.9202 30.2594 35.3074 29.5525C37.2309 28.5725 38.7947 27.0087 39.7747 25.0852C40.4816 23.698 40.7068 22.3193 40.8023 21.151C40.8892 20.0871 40.889 18.8309 40.8889 17.541V13.1259C40.889 11.836 40.8892 10.5796 40.8023 9.51573C40.7068 8.34737 40.4816 6.96873 39.7747 5.58145C38.7947 3.65802 37.2309 2.09422 35.3074 1.11418C33.9202 0.407328 32.5415 0.182094 31.3732 0.0866354C30.3093 -0.000289061 29.053 -0.000140132 27.7631 1.27973e-05L13.1259 1.28056e-05Z" fill="#2279F7"/>
<path d="M64.2369 61.3333C62.947 61.3331 61.6907 61.333 60.6268 61.4199C59.4584 61.5154 58.0798 61.7406 56.6925 62.4474C54.7691 63.4275 53.2053 64.9913 52.2252 66.9147C51.5184 68.302 51.2931 69.6806 51.1977 70.849C51.1108 71.9129 51.1109 73.1692 51.1111 74.4591V78.8741C51.1109 80.164 51.1108 81.4203 51.1977 82.4842C51.2931 83.6526 51.5184 85.0312 52.2252 86.4185C53.2053 88.3419 54.7691 89.9057 56.6925 90.8858C58.0798 91.5926 59.4584 91.8178 60.6268 91.9133C61.6907 92.0002 62.947 92.0001 64.2369 91.9999H78.8741C80.164 92.0001 81.4203 92.0002 82.4842 91.9133C83.6526 91.8178 85.0312 91.5926 86.4185 90.8858C88.3419 89.9057 89.9057 88.3419 90.8858 86.4185C91.5926 85.0312 91.8178 83.6526 91.9133 82.4842C92.0002 81.4203 92.0001 80.164 91.9999 78.8741V74.4591C92.0001 73.1692 92.0002 71.9129 91.9133 70.849C91.8178 69.6806 91.5926 68.302 90.8858 66.9147C89.9057 64.9913 88.3419 63.4275 86.4185 62.4474C85.0312 61.7406 83.6526 61.5154 82.4842 61.4199C81.4203 61.333 80.164 61.3331 78.8741 61.3333H64.2369Z" fill="#2279F7"/>
<path d="M124 65.4923H132.18V37.7077L145.643 65.4923H148.735L162.197 37.7077V65.4923H170.378V18.9692H162.519L147.189 49.8554L131.858 18.9692H124V65.4923Z" fill="white"/>
<path d="M198.742 66.4615C203.208 66.4615 207.084 65.4923 210.369 63.5538C213.654 61.5938 216.198 58.8908 218.002 55.4446C219.805 51.9985 220.707 48.0462 220.707 43.5877C220.707 43.48 220.696 43.0708 220.675 42.36C220.653 41.6492 220.621 41.1538 220.578 40.8738H203.895V47.6585H211.238C210.53 51.3415 209.113 54.0338 206.987 55.7354C204.883 57.4369 202.328 58.2554 199.322 58.1908C194.92 58.1261 191.614 56.6615 189.402 53.7969C187.212 50.9323 186.117 47.0769 186.117 42.2308C186.117 37.3846 187.212 33.4969 189.402 30.5677C191.614 27.6385 194.92 26.2062 199.322 26.2708C202.285 26.2923 204.711 27.1215 206.6 28.7585C208.511 30.3738 209.886 32.5385 210.723 35.2523L219.676 33.96C218.517 28.8769 216.23 24.9462 212.816 22.1677C209.402 19.3892 204.711 18 198.742 18C194.705 18 191.023 18.9477 187.695 20.8431C184.389 22.7385 181.748 25.4954 179.772 29.1138C177.818 32.7108 176.842 37.0831 176.842 42.2308C176.842 46.1723 177.421 49.6508 178.581 52.6662C179.762 55.6815 181.361 58.2123 183.38 60.2585C185.419 62.3046 187.76 63.8554 190.401 64.9108C193.041 65.9446 195.822 66.4615 198.742 66.4615Z" fill="white"/>
<path d="M227.162 65.4923H242.17C242.535 65.4923 243.287 65.4815 244.425 65.46C245.563 65.4385 246.658 65.3631 247.71 65.2338C251.446 64.7815 254.613 63.4785 257.211 61.3246C259.809 59.1708 261.784 56.4354 263.137 53.1185C264.489 49.8015 265.166 46.1723 265.166 42.2308C265.166 38.2892 264.489 34.66 263.137 31.3431C261.784 28.0262 259.809 25.2908 257.211 23.1369C254.613 20.9831 251.446 19.68 247.71 19.2277C246.658 19.0985 245.563 19.0231 244.425 19.0015C243.287 18.98 242.535 18.9692 242.17 18.9692H227.162V65.4923ZM236.051 57.2215V27.24H242.17C242.75 27.24 243.534 27.2508 244.521 27.2723C245.509 27.2938 246.4 27.3908 247.194 27.5631C249.148 27.9508 250.769 28.8662 252.058 30.3092C253.346 31.7523 254.301 33.5185 254.924 35.6077C255.568 37.6969 255.89 39.9046 255.89 42.2308C255.89 44.4492 255.579 46.6031 254.956 48.6923C254.355 50.7815 253.41 52.5692 252.122 54.0554C250.855 55.5415 249.213 56.4892 247.194 56.8985C246.4 57.0492 245.509 57.1462 244.521 57.1892C243.534 57.2108 242.75 57.2215 242.17 57.2215H236.051Z" fill="white"/>
<path d="M273.537 25.7538H282.297V18H273.537V25.7538ZM273.537 65.4923H282.297V30.6H273.537V65.4923Z" fill="white"/>
<path d="M301.615 66.4615C304.299 66.4615 306.553 66.0523 308.378 65.2338C310.225 64.3938 311.921 63.0585 313.467 61.2277V65.4923H321.132V44.1692C321.132 42.5754 321.067 41.1323 320.939 39.84C320.81 38.5477 320.402 37.2554 319.715 35.9631C318.491 33.6369 316.687 32 314.304 31.0523C311.921 30.1046 309.194 29.6308 306.124 29.6308C301.937 29.6308 298.63 30.5354 296.204 32.3446C293.778 34.1538 292.124 36.5015 291.244 39.3877L299.167 41.9077C299.725 40.3138 300.702 39.2046 302.098 38.58C303.493 37.9554 304.835 37.6431 306.124 37.6431C308.185 37.6431 309.72 38.0308 310.729 38.8062C311.738 39.56 312.329 40.7554 312.5 42.3923C309.237 42.8662 306.36 43.3292 303.869 43.7815C301.378 44.2123 299.296 44.7292 297.621 45.3323C294.83 46.3662 292.865 47.7769 291.727 49.5646C290.589 51.3308 290.02 53.4308 290.02 55.8646C290.02 57.8031 290.46 59.58 291.341 61.1954C292.242 62.7892 293.552 64.0708 295.27 65.04C297.009 65.9877 299.124 66.4615 301.615 66.4615ZM303.483 59.5477C301.98 59.5477 300.788 59.2138 299.908 58.5462C299.027 57.8569 298.587 56.92 298.587 55.7354C298.587 54.8523 298.866 54.0985 299.425 53.4738C299.983 52.8277 300.906 52.2462 302.194 51.7292C303.182 51.3631 304.395 51.0292 305.834 50.7277C307.294 50.4046 309.495 49.9954 312.436 49.5C312.415 50.34 312.35 51.2662 312.243 52.2785C312.135 53.2692 311.899 54.1415 311.534 54.8954C311.298 55.3908 310.847 56.0046 310.182 56.7369C309.537 57.4692 308.657 58.1262 307.541 58.7077C306.446 59.2677 305.093 59.5477 303.483 59.5477Z" fill="white"/>
<path d="M329.506 65.4923H338.331V47.6585C338.331 43.6092 339.92 40.8523 343.097 39.3877C344.128 38.8923 345.277 38.6015 346.543 38.5154C347.832 38.4077 348.959 38.5046 349.925 38.8062V30.6C348.358 30.4062 346.79 30.4492 345.223 30.7292C343.656 30.9877 342.238 31.5046 340.972 32.28C340.156 32.7538 339.436 33.3246 338.814 33.9923C338.213 34.66 337.687 35.4031 337.236 36.2215V30.6H329.506V65.4923Z" fill="white"/>
<path d="M359.238 81H367.354L387 30.6H378.24L369.158 54.3462L360.011 30.6H350.929L364.971 65.2015L359.238 81Z" fill="white"/>
</svg>
