<svg width="352" height="154" viewBox="0 0 352 154" fill="none" xmlns="http://www.w3.org/2000/svg">
<path d="M0.000725848 108.203C-0.014167 111.093 0.20014 113.979 0.641629 116.835C1.35269 121.846 3.0192 126.675 5.55067 131.058C9.01709 137.077 14.1698 141.95 20.3732 145.076C26.7629 148.201 33.7966 149.785 40.9093 149.698V124.485C37.5739 124.555 34.2597 123.937 31.1731 122.671C28.4986 121.583 26.2166 119.71 24.6277 117.299C24.3652 116.905 24.1284 116.495 23.9186 116.071C22.8215 113.909 22.2647 111.514 22.2959 109.09C22.2515 107 22.6271 104.922 23.4004 102.981C23.5641 102.585 23.7414 102.19 23.9186 101.835C24.5324 100.639 25.3386 99.5518 26.305 98.617C27.4769 97.4791 28.869 96.5928 30.3958 96.0125C31.8837 95.4365 33.4639 95.1361 35.0594 95.1261C37.6775 95.1132 40.271 95.6328 42.682 96.6534C45.284 97.8086 47.7083 99.3284 49.8819 101.167C52.2955 103.158 55.0228 105.503 58.0636 108.203L104.999 153.557V50.6994L0.000725848 0V108.203ZM83.3452 66.5583H83.1815V108.135L61.5 83.9308C57.8399 79.6391 53.5005 75.9768 48.6547 73.09C43.9582 70.3141 38.5919 68.8759 33.1367 68.931C29.7376 68.9439 26.3675 69.5579 23.1823 70.7446V36.2859L83.3452 66.5583Z" fill="#5B8ADC"/>
<path d="M124 65.7278H149.926C159.458 65.7278 166.677 67.8935 171.585 72.2248C176.493 76.5562 178.947 82.5207 178.947 90.1183C178.947 97.645 176.493 103.609 171.585 108.012C166.677 112.343 159.458 114.509 149.926 114.509H142.031V140.284H124V65.7278ZM149.926 80.5325H142.031V99.5976H149.926C153.554 99.5976 156.399 98.7811 158.462 97.1479C160.525 95.5148 161.556 93.1716 161.556 90.1183C161.556 86.9941 160.525 84.6154 158.462 82.9822C156.399 81.3491 153.554 80.5325 149.926 80.5325Z" fill="#150029"/>
<path d="M201.464 110.249V95.7633H239.02C237.882 92.568 236.104 89.8343 233.686 87.5621C231.267 85.2899 228.493 83.5503 225.364 82.3432C222.305 81.1361 219.14 80.5325 215.868 80.5325C210.604 80.5325 206.123 81.4556 202.424 83.3018C198.726 85.1479 195.81 87.0651 193.676 89.0533V71.4793C196.663 69.2071 199.935 67.3964 203.491 66.0473C207.048 64.6982 211.529 64.0237 216.935 64.0237C224.972 64.0237 232.05 65.6568 238.167 68.9231C244.355 72.1893 249.192 76.7692 252.677 82.6627C256.233 88.4852 258.012 95.2663 258.012 103.006C258.012 110.746 256.233 117.562 252.677 123.456C249.192 129.278 244.355 133.822 238.167 137.089C232.05 140.355 224.972 141.988 216.935 141.988C211.529 141.988 207.048 141.314 203.491 139.964C199.935 138.615 196.663 136.805 193.676 134.533V116.959C195.81 118.947 198.726 120.864 202.424 122.71C206.123 124.556 210.604 125.479 215.868 125.479C219.14 125.479 222.305 124.876 225.364 123.669C228.493 122.462 231.267 120.722 233.686 118.45C236.104 116.178 237.882 113.444 239.02 110.249H201.464Z" fill="#150029"/>
<path d="M333.969 140.284H284.89V152H266.859V124.734H279.022L309.429 62L339.837 124.734H352V152H333.969V140.284ZM309.429 94.4852L298.44 124.734H320.419L309.429 94.4852Z" fill="#150029"/>
</svg>
